<?xml version="1.0" encoding="utf-8"?>
<!-- Generator: Adobe Illustrator 23.0.3, SVG Export Plug-In . SVG Version: 6.00 Build 0)  -->
<svg version="1.1" id="Layer_1" xmlns="http://www.w3.org/2000/svg" xmlns:xlink="http://www.w3.org/1999/xlink" x="0px" y="0px"
	 viewBox="0 0 139.8 138.1" style="enable-background:new 0 0 139.8 138.1;" xml:space="preserve">
<style type="text/css">
	.st0{fill:#2163A8;}
	.st1{fill:#0B345C;}
	.st2{fill:#69B82D;}
	.st3{fill:#FFF100;}
	.st4{fill:#E71F19;}
	.st5{fill:none;}
</style>
<g id="Outermost-Circle-Pieces">
	<g id="Outermost-Circle-4">
		<path class="st0" d="M14,37.9c5.9-10.7,14.6-19.6,25.1-25.7l0.5-0.3l0,0l5.5-3.5c0-2.1,0-4,0.2-5.7C28.6,9,15.7,21,8,35.7l5.9,2.5
			C13.9,38.1,13.9,38,14,37.9z"/>
	</g>
	<g id="Outermost-Circle-3">
		<path class="st1" d="M131.4,85.8c-0.6,2.1-1.3,4.2-2.2,6.3c-8.8,21.5-28,36.1-50.8,39.9H78v-0.1l-5-0.1v0.1h-0.4
			c-2.2,0.1-4.4,0.1-6.6,0h-0.3v-0.2l-5.5-0.5l0,0h-0.4v-0.1c-13.7-0.8-25.1-8-35.1-17l-0.2-0.2l0,0c-1.7-1-3-2.5-3.4-4.5l-0.2-0.2
			C10,96.2,6,85.5,6,68.2c0.1-10.5,2.8-20.8,7.8-30L8,35.7c-8.9,17-10.8,37.6-3.6,57c13.5,36.2,53.8,54.5,90,40.9
			c21-7.9,36.5-25.1,42.6-45.8L131.4,85.8z"/>
	</g>
	<g id="Outermost-Circle-2">
		<path class="st0" d="M139.8,68.2c0-11.5-2.8-22.7-8.2-32.9c-1,2.3-2.1,4.6-3.3,6.9c6.2,13.7,7.3,29.2,3.1,43.5l5.6,2.1
			C138.8,81.6,139.8,75,139.8,68.2z"/>
	</g>
	<g id="Outermost-Circle-1">
		<path class="st0" d="M125.9,29l0.4-2.1c-10-13.6-24.6-23.2-41-26.9L83,5.6c14.4,3.2,27.3,11.1,36.7,22.4l0.1,0.2l0,0l4.9,5.2
			C125.2,32,125.6,30.5,125.9,29z"/>
	</g>
</g>
<g id="Center-Deer">
	<path class="st1" d="M24.5,113.9l0.1-0.2c2.7-5.8,6-11.4,9.8-16.5c1.3-1.8,2.8-3.5,4.3-5.1c2.5-2.8,5.3-5.4,8.3-7.8
		c0.9-0.6,1.7-1.2,2.6-1.9l0.9-0.7l-0.3,1.1c-2.6,9.4-0.7,17.7,3.1,26.6c1.8,4.2,3.8,8.3,5.2,12.7c1,2.8,1.5,5.8,1.7,8.7v0.4
		l5.5,0.5v-0.1c-1.8-9-4.7-17.7-8.4-26.1c-3.6-8-4.9-17.1-0.6-25.1c1.4-2.6,3.3-4.9,5.7-6.7c1.4-1.1,3.1-1.9,4.9-2.4l0,0
		c-0.4-0.3-0.9-0.6-1.2-0.8c-1.2-0.8-2.3-1.6-3.3-2.5c-1-0.8-1.9-1.6-2.8-2.5c-0.7-0.8-3.5-3.7-3.7-4.6l-0.1-0.7l0.6,0.2
		c8.9,3.2,17.8,7,26.5,10.6s17.6,7.5,26.5,10.6l0.4,0.1l-2,5.4c-0.2,0.4-1.8,0.7-2.1,0.7c-1.6,0.3-3.2,0.6-4.8,1
		c-4.8,0.9-9.5,1.8-14.3,2.6c-5.5,1-11,2-16.5,2.9c0.1,1.2,0.3,2.4,0.6,3.6l3.6-0.7l-0.1,0.6c-2.6,11-3.1,22.3-1.6,33.5v0.4l5,0.1
		l-0.1-0.3c-2.4-11.8-2.9-23.2,1.3-34.8l0.1-0.2h0.2c10.8-1.8,21.5-4.3,32.3-6.3l4.1-10.5L77.5,64.2c-3.7-1.4-7.1-3.8-10.7-5.2
		c-0.6-0.1-1.1-0.1-1.7-0.2c-5.4-0.7-9.3-3.1-14.2-5.1c0.4,6.1,2.5,10.2,7.5,14.2l0.4,0.3l-0.4,0.3c-14.6,10.7-29,24-36.9,40.6
		l-0.2,0.5l-0.2-0.2C21.4,111.4,22.7,112.9,24.5,113.9z"/>
</g>
<g id="Top-Inside-Curves">
	<g id="Top-Left-Curve">
		<path class="st0" d="M39.6,12.5c0.7,16.4,7.9,27.8,23.4,33.8c12.5,4.8,24.5,3.8,36.1-2.6L97,39l-3.2,1.6
			C86.9,44,78.9,45,71.4,43.1C60.1,40.6,51,32.5,47,21.7c-1.2-3.3-1.8-8.6-1.8-13.3l-5.5,3.5v0.6C39.7,12.5,39.6,12.5,39.6,12.5z"/>
	</g>
	<g id="Top-Right-Curve">
		<path class="st0" d="M119.8,28.3l-1,2.8C115,42.6,106,51.7,94.6,55.7c-7.7,2.9-19.2,4.1-27.8,3.3c3.6,1.3,6.9,3.7,10.6,5.1
			l1.4-0.2c5.2-0.7,12.1-1,17-2.8c12.4-4.6,24.4-14.9,28.9-27.7L119.8,28.3z"/>
	</g>
</g>
<g id="Top-Isolated-Islands">
	<g id="Isolated-Dot-Top">
		<path class="st2" d="M73.2,17.9c-0.8,0.9-1.9,1.4-3.1,1.4c-0.8,0-1.7-0.4-2.2-1c-0.4-0.8-0.3-1.8,0.1-2.6c0.5-1.1,1.4-1.9,2.6-2.1
			c0.8-0.2,4.8-1,5.4-0.1S73.8,17.4,73.2,17.9L73.2,17.9z"/>
	</g>
	<g id="Isolated-Dot-Bottom">
		<path class="st3" d="M46.1,46.6c-5.8,0.5-5.6-0.6-1.5-4.1c0.8-0.7,1.8-0.9,2.8-0.7c0.7,0.1,1.4,0.6,1.8,1.3c0.2,0.7,0,1.5-0.4,2.1
			C48.1,46.1,47.2,46.6,46.1,46.6z"/>
	</g>
	<g id="Isolated-Dot-Middle-Left">
		<path class="st4" d="M35.9,33.4c-5.2-2.7-4.4-3.4,0.9-4.3c1-0.2,2,0.2,2.7,0.9c0.6,0.5,0.9,1.2,0.8,2c-0.2,0.7-0.8,1.3-1.5,1.5
			C37.9,34,36.8,33.9,35.9,33.4L35.9,33.4z"/>
	</g>
	<g id="Isolated-Top-Curve">
		<path class="st0" d="M59.8,29.4c-2.9-10.8-1-20,6.2-28.5l3.2,3.5c-7.2,8.2-7.7,15.9-4,25.9L63.7,32C62.1,31.7,60.7,30.7,59.8,29.4
			z"/>
	</g>
</g>
<g id="original">
	<path id="main_6_" class="st5" d="M99.2,43.8L97,39l-3.2,1.6C86.9,44,78.9,45,71.4,43.1C60.1,40.6,51,32.5,47,21.7
		c-1.7-4.8-2.2-13.6-1.6-19c-36.2,13.6-54.5,53.9-41,90s53.8,54.5,90,40.9c27.3-10.2,45.4-36.3,45.4-65.5c0-11.5-2.8-22.7-8.2-32.8
		c-1,2.3-2.1,4.6-3.3,6.9c7.1,15.8,7.5,33.8,0.9,49.8c-8.8,21.5-28,36.1-50.8,39.9L78,132l-0.1-0.4c-2.4-11.8-2.9-23.2,1.3-34.8
		l0.1-0.2h0.2c10.8-1.8,21.5-4.3,32.3-6.3l4.1-10.5L77.4,64.1l1.4-0.2c5.2-0.7,12.1-1,17-2.8C109.6,56,123,43.9,125.9,29l0.4-2.1
		c-10-13.6-24.6-23.2-41-26.9L83,5.6c14.4,3.2,27.3,11.1,36.7,22.4l0.1,0.2l-1,2.9C115,42.6,106,51.7,94.6,55.7
		c-8.2,3.1-20.8,4.3-29.5,3.1c-5.4-0.7-9.3-3.1-14.2-5.1c0.4,6.1,2.5,10.2,7.5,14.2l0.4,0.3l-0.4,0.3c-14.6,10.7-29,24-36.9,40.6
		l-0.2,0.6l-0.4-0.5C10,96.2,6,85.5,6,68.2c0.1-10.6,2.9-21,8-30.3c5.9-10.7,14.6-19.6,25.1-25.7l0.5-0.3v0.6
		c0.7,16.4,7.9,27.8,23.4,33.8C75.6,51.2,87.6,50.1,99.2,43.8z M67.3,71.3c-0.4-0.3-0.9-0.6-1.2-0.8c-1.2-0.8-2.3-1.6-3.3-2.5
		c-1-0.8-1.9-1.6-2.8-2.5c-0.7-0.8-3.5-3.7-3.7-4.6l-0.1-0.7l0.6,0.2c8.9,3.2,17.8,7,26.5,10.6s17.6,7.5,26.5,10.6l0.4,0.1l-2,5.4
		c-0.2,0.4-1.8,0.7-2.1,0.7c-1.6,0.3-3.2,0.6-4.8,0.9c-4.8,0.9-9.5,1.8-14.3,2.6c-5.5,1-11,2-16.5,2.9c0.1,1.2,0.3,2.4,0.6,3.6
		l3.6-0.7l-0.1,0.6c-2.6,11-3.1,22.3-1.6,33.5v0.4h-0.4c-2.2,0.1-4.4,0.1-6.6,0h-0.3l-0.1-0.3c-1.8-9-4.7-17.7-8.4-26.1
		c-3.6-8-4.9-17.1-0.6-25.1c1.4-2.6,3.3-4.9,5.7-6.7C63.8,72.5,65.5,71.7,67.3,71.3L67.3,71.3z M59.7,131.1
		c-13.7-0.8-25.1-8-35.1-17l-0.2-0.2l0.1-0.2c2.7-5.8,6-11.4,9.8-16.6c1.3-1.8,2.8-3.5,4.3-5.1c2.5-2.8,5.3-5.4,8.3-7.8
		c0.9-0.6,1.7-1.2,2.6-1.9l0.9-0.7l-0.3,1.1c-2.6,9.4-0.7,17.7,3.1,26.6c1.8,4.2,3.8,8.3,5.2,12.7c1,2.8,1.5,5.8,1.7,8.7v0.4H59.7
		L59.7,131.1z M46.1,46.6c-5.8,0.5-5.6-0.6-1.5-4.1c0.8-0.7,1.8-0.9,2.8-0.7c0.7,0.1,1.4,0.6,1.8,1.3c0.2,0.7,0,1.5-0.4,2.1
		C48.1,46.1,47.2,46.6,46.1,46.6z M35.9,33.4c-5.2-2.7-4.4-3.4,0.9-4.3c1-0.2,2,0.2,2.7,0.9c0.6,0.5,0.9,1.2,0.8,2
		c-0.2,0.7-0.8,1.3-1.5,1.5C37.9,34,36.8,33.9,35.9,33.4L35.9,33.4z M73.2,17.9c-0.8,0.9-1.9,1.4-3.1,1.4c-0.8,0-1.7-0.4-2.2-1
		c-0.4-0.8-0.3-1.8,0.1-2.6c0.5-1.1,1.4-1.9,2.6-2.1c0.8-0.2,4.8-1,5.4-0.1S73.8,17.4,73.2,17.9L73.2,17.9z M59.8,29.4
		c-2.9-10.8-1-20,6.2-28.5l3.2,3.5c-7.2,8.2-7.7,15.9-4,25.9L63.7,32C62.1,31.7,60.7,30.7,59.8,29.4z"/>
</g>
</svg>
